<?xml version="1.0" encoding="UTF-8"?>
<svg width="160px" height="66px" viewBox="0 0 160 66" version="1.1" xmlns="http://www.w3.org/2000/svg" xmlns:xlink="http://www.w3.org/1999/xlink">
    <!-- Generator: Sketch 53.2 (72643) - https://sketchapp.com -->
    <title>Generation_BRASIL_logo_WHITE</title>
    <desc>Created with Sketch.</desc>
    <g id="Page-1" stroke="none" stroke-width="1" fill="none" fill-rule="evenodd">
        <g id="Generation_BRASIL_logo_WHITE" fill="#FFFFFF" fill-rule="nonzero">
            <path d="M159.670922,17.3390071 C159.903546,18.1730496 159.046809,19.177305 158.825532,20.0794326 C159.160284,20.8510638 158.910638,21.2141844 158.348936,22.1617021 C156.862411,24.5957447 156.249645,27.7617021 154.207092,30.5134752 C154.286525,28.8113475 155.262411,27.0638298 156.323404,25.5602837 C154.513475,26.848227 153.55461,29.248227 153.87234,30.9673759 C154.133333,31.0468085 153.940426,30.6553191 154.207092,30.5134752 C154.417021,30.5815603 154.207092,31.0808511 154.513475,30.729078 C154.638298,30.8992908 154.241135,31.2510638 154.12766,31.2624113 C153.895035,32.2099291 154.434043,32.9021277 154.780142,33.7078014 C154.836879,33.8269504 154.609929,33.9460993 154.638298,34.0652482 C154.785816,34.6326241 155.693617,35.2737589 156.544681,35.9092199 C156.953191,35.7843972 157.424113,36.0453901 157.866667,36.1702128 C156.595745,36.8113475 155.33617,37.5148936 153.843972,36.7375887 C153.548936,36.6297872 153.91773,36.4141844 153.843972,36.2666667 C152.533333,35.4666667 152.499291,34.4737589 151.733333,33.5886525 C152,33.3333333 151.568794,33.0212766 151.971631,32.9475177 C151.68227,31.7219858 151.824113,30.422695 151.704965,29.1687943 C152.431206,28.1191489 152.459574,27.177305 152.839716,26.1730496 C152.919149,25.9120567 152.556028,26.1390071 152.590071,25.8836879 C153.605674,23.3985816 154.144681,21.0950355 155.126241,18.4510638 C154.502128,18.4510638 154.133333,18.8312057 153.588652,18.9617021 C153.497872,18.9617021 153.219858,18.7858156 153.089362,18.8368794 C152.102128,19.2510638 151.563121,20.7035461 150.547518,21.0439716 C150.751773,20.3687943 151.574468,19.9092199 152.005674,19.2113475 C151.086525,19.3588652 150.371631,20.8170213 149.514894,21.3390071 C150.031206,19.9886525 151.364539,18.9503546 152.351773,17.6170213 C152.102128,17.458156 151.914894,17.7078014 151.710638,17.8439716 C151.846809,17.1177305 152.61844,16.777305 153.004255,16.2382979 C151.262411,17.0496454 150.167376,19.1943262 148.408511,21.2425532 C148.692199,21.2141844 148.89078,20.635461 149.146099,20.3914894 C149.486525,21.5262411 147.285106,22.7234043 147.279433,23.8978723 C147.744681,23.7106383 147.77305,22.7007092 148.414184,22.8539007 C148.085453,23.1639017 147.844668,23.5554207 147.716312,23.9886525 C146.649645,24.1702128 146.853901,25.7304965 146.224113,26.4964539 C146.30922,26.706383 146.190071,26.9503546 146.331915,27.1546099 C144.629787,30.0595745 143.495035,33.2255319 140.992908,36.022695 C140.851064,35.8921986 141.129078,35.693617 140.992908,35.551773 C140.470922,35.2397163 140.153191,36.2156028 139.68227,36.2269504 C139.353191,36.0170213 139.568794,35.7106383 139.557447,35.4439716 C138.014184,35.5460993 137.55461,33.741844 137.390071,32.8397163 C137.703592,32.4056344 137.881301,31.8883045 137.900709,31.3531915 C141.588652,26.7631206 143.29078,22.2751773 145.526241,17.7702128 C145.231206,17.9120567 144.873759,17.6680851 144.578723,17.7702128 C145.180142,17.151773 145.713475,17.0553191 146.121986,16.4539007 C146.859574,15.4099291 146.689362,13.6170213 148.011348,12.612766 C148.692827,12.9238304 149.336293,13.3121947 149.929078,13.7702128 C150.002456,14.372691 149.985244,14.9827591 149.878014,15.5801418 C150.042553,15.6539007 150.258156,16.0170213 150.365957,15.7049645 C150.451064,15.8751773 150.365957,16.0680851 150.184397,16.2723404 C150.411348,16.2723404 150.570213,15.8411348 150.751773,15.7787234 C151.069504,15.8638298 150.632624,16.0680851 150.950355,16.1475177 C151.226845,16.0872978 151.482957,15.9563088 151.693617,15.7673759 C151.948936,16.0851064 152.119149,15.8808511 152.340426,16 C153.022552,15.1363532 154.044142,14.6090144 155.143262,14.5531915 C155.392908,14.2751773 155.307801,13.9858156 155.665248,13.9858156 C156.022695,13.9858156 155.841135,14.2751773 155.665248,14.4567376 C156.062411,14.5134752 156.141844,14.258156 156.187234,13.8893617 C156.834043,14.5985816 157.37305,14.2638298 157.775887,14.5758865 C158.048227,14.6553191 157.815603,14.2978723 158.076596,14.3262411 C158.261023,14.8628743 158.64505,15.3078584 159.148936,15.5687943 C158.785816,15.9829787 159.234043,16.2666667 158.791489,16.7035461 L159.24539,17.0326241 C159.12834,17.2900782 159.081366,17.5738809 159.10922,17.8553191 C159.319149,17.9234043 159.449645,17.458156 159.625532,17.2879433" id="Path"></path>
            <path d="M158.212766,23.4553191 C158.297872,23.6255319 158.212766,23.812766 158.031206,24.022695 C157.702128,23.8921986 158.144681,23.648227 158.212766,23.4553191" id="Path"></path>
            <path d="M156.323404,25.5602837 C155.262411,27.0638298 154.286525,28.8283688 154.207092,30.5134752 C153.940426,30.6553191 154.133333,31.0468085 153.87234,30.9673759 C153.55461,29.2652482 154.513475,26.848227 156.323404,25.5602837" id="Path"></path>
            <path d="M137.236879,24.2553191 C137.424113,23.8297872 138.26383,23.2907801 137.843972,22.9560284 C137.696454,23.3815603 137.219858,23.858156 137.236879,24.2553191 M139.614184,21.8099291 C140.104809,21.2623232 140.377364,20.5536788 140.380142,19.8184397 C140.034295,20.4438121 139.776537,21.113982 139.614184,21.8099291 M142.190071,17.1858156 C142.286525,18.1900709 140.57305,19.3815603 140.686525,20.5049645 C140.970213,20.7319149 141.11773,20.0907801 141.361702,20.0624113 C140.794326,20.8510638 140.499291,22.1560284 139.659574,22.6666667 C138.83864,24.7905271 137.613124,26.7347806 136.051064,28.3914894 C135.903546,28.635461 136.18156,28.8170213 136.153191,29.0439716 C135.750355,29.8836879 135.188652,29.7475177 134.757447,30.4680851 C134.456738,30.212766 135.041135,30.1843972 134.887943,29.9801418 C134.156028,30.6042553 133.514894,31.8014184 132.811348,32.6468085 C133.378723,32.5333333 133.809929,31.551773 134.422695,31.7276596 C133.946099,32.8624113 132.266667,33.7248227 131.319149,34.6893617 C131.257158,35.1088447 131.025295,35.4843397 130.678014,35.7276596 C130.462411,35.4893617 130.604255,35.2 130.814184,34.9049645 C130.139007,35.4723404 129.401418,35.6425532 128.720567,36.164539 C128.578723,36.0340426 128.856738,35.835461 128.720567,35.6992908 C127.370213,36.4028369 125.815603,35.551773 124.453901,35.1602837 C122.751773,32.2496454 122.825532,28.351773 125.702128,25.1858156 C126.269504,23.0808511 127.716312,20.9021277 129.41844,18.848227 C131.120567,16.7943262 132.431206,13.741844 134.763121,12.987234 C136.079433,13.9687943 137.106383,14.9900709 137.089362,16.1758865 C134.809948,17.9051213 132.795307,19.9579912 131.10922,22.2695035 C131.557447,22.5475177 132.397163,21.6056738 132.896454,20.7829787 C133.021277,21.8212766 130.62695,22.706383 130.910638,23.9716312 C130.28672,24.5492994 129.754804,25.2189775 129.333333,25.9574468 C129.560284,26.1219858 129.639716,25.3219858 129.900709,25.6737589 C129.089362,27.3758865 127.948936,28.2780142 127.137589,29.9177305 C127.500709,29.7929078 127.77305,29.1120567 128.102128,28.7829787 C128.039716,29.7078014 127.234043,30.7460993 127.007092,31.6992908 C127.784397,31.2907801 128.470922,30.9957447 129.276596,30.564539 C130.365957,29.9347518 131.092199,28.8624113 132.18156,28.0340426 C132.970213,27.4666667 134.207092,27.2056738 134.695035,26.0312057 C134.933333,25.8156028 135.2,25.8326241 135.443972,25.6453901 C137.531915,23.2624113 139.415603,20.6411348 140.363121,17.9801418 C140.839716,17.8609929 140.930496,17.5092199 141.55461,16.987234 C141.310638,16.7148936 141.197163,17.2879433 140.953191,16.987234 C141.055319,16.4992908 141.605674,16.3007092 141.934752,15.9602837 C142.456738,16.2099291 141.299291,17.2595745 141.412766,17.787234 C141.730496,17.929078 141.906383,17.2198582 142.201418,17.2198582" id="Shape"></path>
            <path d="M140.402837,24.2326241 C140.445915,24.6438191 140.21579,25.0350316 139.835461,25.1971631 C139.778723,24.9134752 140.27234,24.5503546 140.402837,24.2326241" id="Path"></path>
            <path d="M135.858156,30.4340426 C135.948936,30.8992908 135.438298,31.0014184 135.341844,31.4496454 C135.041135,31.1886525 135.739007,30.7687943 135.858156,30.4340426" id="Path"></path>
            <path d="M134.887943,31.1205674 C135.217021,31.2340426 134.751773,31.7333333 134.592908,31.3702128 C134.683688,31.2510638 134.763121,31.0524823 134.887943,31.1205674" id="Path"></path>
            <path d="M125.940426,6.13333333 C127.370213,6.16170213 128.70922,7.83546099 128.805674,8.90212766 C127.858156,9.5035461 126.842553,9.77588652 126.53617,11.1716312 C125.713475,9.58297872 125.821277,7.84680851 125.934752,6.1106383" id="Path"></path>
            <path d="M114.558865,32.1588652 C115.279433,30.9787234 116.550355,29.8439716 116.692199,28.6070922 C115.846809,29.6907801 114.842553,30.8765957 114.558865,32.1588652 M120.924823,18.706383 C121.333333,19.3078014 120.970213,20.0397163 121.231206,20.6638298 C121.095035,20.9815603 120.941844,21.5659574 120.590071,21.7021277 C120.834043,21.9914894 120.975887,21.5829787 121.231206,21.9347518 C120.862411,22.6212766 120.260993,23.341844 120.465248,23.9319149 C118.070922,27.2170213 115.228369,31.4553191 113.883688,35.1375887 C113.480851,34.9843972 113.060993,34.7858156 112.748936,35.2510638 C112.278014,35.058156 112.782979,34.7120567 112.363121,34.5078014 C111.943262,34.3035461 111.642553,34.7574468 111.273759,34.8765957 C110.880749,34.172127 110.526556,33.4466941 110.212766,32.7035461 C110.990071,30.3319149 112.448227,27.8468085 113.441135,25.435461 C114.048227,24.3631206 114.819858,23.4780142 115.341844,22.5248227 C115.495035,22.2468085 115.466667,21.9574468 115.614184,21.6794326 C116.22695,20.6070922 117.07234,19.7333333 117.492199,18.6439716 C117.741844,17.9858156 117.577305,17.129078 118.502128,16.941844 C119.419024,17.3714865 120.246714,17.970118 120.941844,18.706383" id="Shape"></path>
            <path d="M85.4014184,24.7262411 C85.5716312,24.4822695 86.1049645,24.3631206 86.0312057,24.0283688 C85.8382979,24.0794326 85.3333333,24.3914894 85.4014184,24.7262411 M94.1106383,15.8638298 C93.1801418,16.2042553 92.1815603,16.1531915 91.387234,17.3617021 C90.7314646,17.6102227 90.2380769,18.1629016 90.0652482,18.8425532 C88.1758865,20.1702128 87.4269504,22.048227 86.0652482,23.8184397 C86.235461,23.7333333 86.3716312,23.4609929 86.5531915,23.4723404 C86.3092199,24.7546099 84.7432624,25.8439716 84.493617,27.0808511 C84.4312057,27.1546099 84.3914894,27.2964539 84.493617,27.2056738 C84.6411348,26.8425532 84.7035461,26.7858156 85.0326241,26.7914894 C85.0609929,27.3588652 84.2099291,28.0737589 84.3801418,28.635461 C88.1985816,25.5375887 91.812766,20.3120567 94.0879433,15.8638298 M96.141844,26.258156 C96.2496454,26.0425532 96.0624113,25.8723404 95.9829787,25.6907801 C95.7049645,25.8723404 96.187234,25.929078 95.9092199,26.1049645 L96.141844,26.2695035 M105.310638,19.4609929 C106.031206,18.2524823 107.370213,17.7588652 107.387234,16.7943262 C106.723404,17.6056738 105.685106,18.4170213 105.310638,19.4609929 M120.992908,11.4609929 C120.624113,11.6312057 120.70922,12.1304965 120.306383,12.2382979 C120.073759,11.670922 120.408511,10.9730496 119.489362,10.4907801 C117.032624,10.4907801 115.06383,13.5546099 112.680851,14.8312057 C111.653901,15.3985816 110.201418,15.4382979 109.214184,17.1858156 C109.860993,16.9475177 110.235461,15.9035461 111.041135,15.9602837 C109.753741,17.9773616 108.208799,19.8179402 106.44539,21.435461 C106.904965,20.2439716 107.971631,19.4326241 108.624113,18.1446809 C106.782322,19.9463419 105.133668,21.9353748 103.704965,24.0794326 C104.118935,23.7702612 104.499274,23.4184479 104.839716,23.0297872 C104.805674,24.0397163 103.642553,25.2255319 103.262411,26.2921986 C103.670922,26.2921986 103.95461,25.5602837 104.300709,25.1858156 C104.249645,25.4751773 104.062411,26.1617021 103.77305,26.0765957 C102.956028,27.7787234 103.160284,29.2992908 102.638298,30.9390071 C102.780142,30.9390071 102.899291,30.8765957 103.012766,30.7460993 C103.15461,31.4780142 102.116312,32.0340426 101.929078,32.8567376 C101.758865,34.2751773 101.792908,36.2609929 100.09078,36.964539 C99.6621277,36.7899992 99.1704296,36.8932782 98.848227,37.2255319 C98.5588652,36.9475177 98.3148936,36.9475177 98.093617,37.1404255 C96.9588652,36.5730496 97.2368794,35.8468085 96.448227,35.2567376 C96.493617,34.6212766 96.2382979,34.0368794 96.448227,33.3843972 C95.2086798,33.0279621 94.1328475,32.249188 93.4070922,31.1829787 C93.4921986,31.0411348 93.6113475,31.0921986 93.7021277,30.9333333 C93.0496454,30.258156 93.1347518,29.458156 92.612766,28.7602837 C92.6974307,27.6932919 92.6650869,26.6202392 92.5163121,25.5602837 C92.6184397,25.248227 92.3347518,25.7531915 92.2326241,25.4751773 C92.1304965,25.1971631 92.0964539,24.9985816 92.4425532,24.6978723 C92.1758865,24.8283688 92.1248227,24.6638298 92.0624113,24.4255319 C90.9276596,25.787234 90.8879433,26.9787234 89.6510638,28.351773 C89.5886525,28.4765957 89.8609929,28.5446809 89.7702128,28.6695035 C88.3826837,31.3247461 86.2089117,33.4866287 83.5460993,34.8595745 C83.2510638,34.8255319 83.9319149,34.7574468 84.0113475,34.3886525 C83.4836879,33.9858156 82.4056738,34.3886525 82.2638298,33.5886525 C81.9858156,33.3787234 81.7815603,33.6624113 81.5092199,33.5035461 C81.0893617,32.5900709 80.3744681,31.7219858 80.2666667,30.751773 C80.4198582,29.3049645 80.5843972,27.8468085 80.7886525,26.3886525 C82.3716312,23.9886525 82.9957447,21.2822695 84.8453901,18.7858156 C85.412766,18.0368794 85.9801418,16.9702128 86.6553191,16.1588652 C87.9262411,14.6780142 89.4921986,12.7546099 91.2340426,12.2950355 C92.3479908,13.0055293 93.3843875,13.8308434 94.3262411,14.7574468 C94.4732976,14.972496 94.492822,15.2501765 94.377305,15.4836879 C94.6950355,15.4836879 94.8879433,14.7234043 95.2794326,15.2113475 C95.341844,15.0184397 95.7843972,14.7744681 95.4609929,14.6439716 C95.5971631,14.3829787 95.858156,14.893617 95.9829787,14.564539 C96.2893617,15.0638298 96.612766,14.9049645 96.9758865,15.2794326 C97.8382979,16.1702128 97.2425532,17.2028369 97.5829787,18.2638298 C97.308211,18.5562396 97.1524257,18.9406448 97.1460993,19.341844 C97.4695035,19.4666667 97.2992908,18.7744681 97.5546099,18.9390071 C97.9404255,19.6368794 97.0950355,20.5276596 97.5092199,21.2085106 C97.3276596,21.458156 97.3673759,21.6794326 97.0893617,21.9404255 C97.0382979,22.0652482 97.2312057,22.1390071 97.3390071,22.2411348 C96.612766,23.3134752 96.8397163,24.2326241 96.1361702,25.3049645 C96.6241135,25.458156 96.4595745,24.658156 96.8056738,24.3971631 C96.6808511,26.3375887 95.5858156,28.4255319 95.9829787,30.2865248 L97.4297872,31.3304965 C97.9631206,31.2340426 98.235461,30.2411348 98.3319149,29.787234 C100.18156,25.1460993 103.761702,20.5560284 105.758865,15.8297872 C104.516312,16.187234 103.319149,16.8737589 101.843972,15.7730496 C101.775887,15.2056738 100.907801,14.7574468 100.919149,14.1787234 C103.546099,12.7716312 106.161702,11.2680851 108.930496,10.7177305 C110.706383,7.36453901 112.539007,3.80141844 114.394326,0.55035461 C117.02695,2.25248227 114.12766,4.78865248 114.44539,6.84255319 C113.730496,7.58014184 113.957447,8.16453901 113.951773,8.79432624 C114.167376,8.90780142 114.343262,8.7035461 114.592908,9.02695035 C114.853901,8.78297872 115.160284,9.02695035 115.534752,9.02695035 C115.642553,9.02695035 115.784397,8.83404255 115.90922,8.83971631 C116.034043,8.84539007 116.113475,9.05531915 116.215603,9.06099291 C117.140426,9.06099291 118.643972,8.89078014 119.574468,9.40141844 C120.367535,9.80116943 120.90221,10.5775166 120.992908,11.4609929" id="Shape"></path>
            <path d="M106.870922,22.7744681 C106.463622,23.5894271 105.975093,24.3611882 105.412766,25.0780142 C105.412766,24.9475177 105.37305,24.8170213 105.350355,24.6865248 C105.82695,24.1191489 106.541844,22.8652482 106.870922,22.7744681" id="Path"></path>
            <path d="M75.4212766,18.3148936 C75.9148936,17.4524823 76.8283688,16.9702128 77.1234043,16.1758865 C76.3932032,16.7425782 75.8095133,17.4760818 75.4212766,18.3148936 M77.8723404,15.5687943 C78.0652482,15.2510638 78.3886525,15.2397163 78.235461,14.9106383 C78.1503546,15.1262411 77.741844,15.387234 77.8723404,15.5687943 M79.4950355,13.0382979 C79.1829787,12.7716312 79.012766,13.3957447 78.7404255,13.4241135 C79.0468085,13.6340426 79.2397163,13.1574468 79.4950355,13.0382979 M87.8524823,10.0595745 C87.8326761,10.454858 87.6473135,10.8235234 87.341844,11.0751773 C85.6907801,10.3319149 84.4141844,11.9148936 82.9900709,12.5617021 C82.8822695,12.7546099 82.9049645,12.9304965 82.6780142,13.129078 C82.4510638,13.3276596 82.7971631,12.8056738 82.8765957,12.6921986 C82.7007092,12.4198582 82.6382979,12.8964539 82.4624113,12.6241135 C81.1801418,13.9007092 79.7617021,14.2921986 78.4907801,15.7843972 C79.8548873,14.9660779 81.1644911,14.0601581 82.4113475,13.0723404 C82.1730496,14.0198582 80.7829787,14.5475177 80.0453901,15.1829787 C78.4397163,17.6453901 75.7446809,20.1078014 73.9007092,22.9049645 C73.9460993,22.5531915 73.9007092,22.3375887 73.4808511,22.3375887 C73.5943262,22.0312057 73.8269504,21.7021277 73.8042553,21.4184397 C73.4411348,22.1673759 71.9432624,23.6879433 72.6014184,24.4822695 C72.8,24.4255319 73.0042553,23.8014184 73.3276596,23.5007092 C73.2368794,24.2609929 72.1134752,25.3446809 71.6879433,26.3375887 C72.1078014,26.3829787 72.1985816,25.8042553 72.4312057,25.4865248 C72.1929078,26.9730496 71.2964539,28.5617021 70.6666667,30.1163121 C70.4680851,30.2808511 71.0695035,30.3205674 70.8652482,30.4851064 C70.4420732,31.8205578 69.9400084,33.1297155 69.3617021,34.4056738 C68.7319149,34.1219858 68.9702128,33.7078014 68.8567376,33.3446809 C68.4198582,33.6964539 68.0340426,34.3943262 67.5120567,34.2241135 C67.4553191,34.0539007 67.5120567,33.8666667 67.4326241,33.6964539 C67.2,33.3843972 67.0921986,33.8326241 66.8652482,33.5205674 C66.4567376,33.0723404 66.3432624,32.5730496 65.9007092,32.1304965 C66.2638298,31.3475177 65.4524823,30.8539007 65.7248227,30.1503546 C65.8042553,29.9460993 66.070922,29.7758865 66.1673759,29.5432624 C66.4170213,28.9248227 66.5758865,28.2382979 66.870922,27.6255319 C68.4368794,24.4255319 69.0212766,20.7489362 70.5361702,17.5432624 C70.6036942,16.9371852 70.4828463,16.3250211 70.1900709,15.7900709 C70.5929078,15.3475177 71.1375887,15.8297872 71.5404255,15.3758865 C72.0624113,15.9432624 72.9361702,15.7617021 73.0609929,16.4765957 C73.6076494,16.2398853 74.0843449,15.8667343 74.4453901,15.3929078 C77.2822695,14.4907801 79.8241135,11.9319149 82.6269504,10.8992908 C82.7971631,10.6950355 82.4794326,10.564539 82.8085106,10.3319149 C83.7083574,9.85518854 84.718708,9.62609741 85.7361702,9.66808511 C86.5588652,9.79858156 87.1829787,9.40141844 87.8921986,10.070922" id="Shape"></path>
            <path d="M84.987234,12.7319149 C84.5106383,13.8666667 82.9333333,14.0765957 82.0652482,15.1262411 C81.7688876,15.6116035 81.3839572,16.0369515 80.9304965,16.3801418 C80.8397163,16.4255319 80.5730496,16.3120567 80.4595745,16.3801418 C80.1248227,16.6014184 79.7049645,17.1914894 79.2340426,17.577305 C78.6666667,18.0368794 77.9801418,18.2241135 78.0085106,18.7744681 C77.577305,18.7744681 77.270922,19.506383 76.8737589,19.8184397 C78.2865248,16.6978723 81.1574468,15.4553191 83.3134752,13.2539007 C83.7446809,13.5716312 84.448227,12.9021277 84.9815603,12.7262411" id="Path"></path>
            <path d="M80.7092199,16.9531915 C80.2609929,17.435461 80.3007092,18.0255319 79.7673759,18.235461 C79.9546099,17.8326241 80.0510638,16.9758865 80.7092199,16.9531915" id="Path"></path>
            <path d="M78.1730496,18.6893617 C78.1418791,19.013442 78.0018899,19.3174184 77.7758865,19.551773 C77.5035461,19.1319149 77.8666667,18.9333333 78.1730496,18.6893617" id="Path"></path>
            <path d="M77.458156,19.670922 C77.4978723,19.9659574 77.3049645,20.6014184 76.8907801,20.4255319 C76.8567376,20.1021277 77.2595745,19.9035461 77.458156,19.670922" id="Path"></path>
            <path d="M76.493617,20.822695 C76.822695,20.9531915 76.3914894,21.248227 76.2893617,21.2595745 C76.1134752,21.1858156 76.2893617,20.7375887 76.493617,20.822695" id="Path"></path>
            <path d="M68.658156,15.6198582 C68.8624113,15.7900709 68.9929078,15.4723404 69.2255319,15.8014184 C68.0567376,18.0198582 66.6723404,22.6099291 63.8751773,23.7446809 C63.693617,23.9489362 63.8751773,24.0964539 63.693617,24.3120567 C62.9724863,24.7671481 62.2876952,25.2774218 61.6453901,25.8382979 C59.7390071,25.787234 59.4099291,28.8624113 58.2014184,30.0595745 C57.8950355,29.1234043 58.564539,28.0397163 58.7687943,27.0184397 C57.106383,28.6638298 57.2539007,30.6042553 57.5602837,32.164539 C58.7460993,32.658156 60.2780142,31.812766 61.6170213,30.9276596 C62.9208427,29.9811302 64.1517282,28.9380069 65.2992908,27.8070922 C65.4751773,28.0510638 65.2992908,28.3744681 65.5546099,28.5730496 C63.8524823,30.3716312 63.5234043,32.8056738 61.9858156,34.5531915 C61.9347518,34.6723404 62.1276596,34.751773 62.235461,34.8539007 C61.5205674,35.2964539 60.8510638,36.0340426 60.022695,35.7957447 C59.6312057,36.1475177 59.2567376,36.6184397 58.751773,36.2666667 C58.9446809,36.0737589 59.3702128,36.0283688 59.3475177,35.7730496 C58.3888938,35.9386919 57.4040939,35.862638 56.4822695,35.551773 C55.9432624,35.3929078 56.0170213,34.9560284 55.6368794,34.4737589 C55.0695035,33.7815603 54.2865248,33.4241135 54.7404255,32.6695035 C54.2411348,32.4822695 54.4851064,32.1758865 54.093617,31.9716312 C54.3041139,31.7593558 54.4275734,31.476006 54.4397163,31.177305 C53.9858156,30.0028369 54.6780142,28.6411348 54.6496454,27.3985816 C55.5858156,25.5092199 56.6865248,23.3134752 57.4524823,21.6680851 C58.0992908,21.2595745 57.9858156,20.8 58.587234,20.0794326 C58.7347518,19.8751773 58.5191489,19.7333333 58.5021277,19.5574468 C59.7049645,18.1049645 60.4539007,16.4879433 61.6624113,15.2453901 C62.2297872,13.8269504 64.0567376,13.3957447 65.0666667,12.164539 C65.6340426,12.306383 66.0595745,11.9148936 66.5702128,11.8638298 C66.8652482,11.9943262 66.5702128,12.1078014 66.4794326,12.1475177 C66.7234043,12.1475177 66.8255319,12.5617021 67.3361702,12.8794326 C68.8113475,13.1404255 68.7432624,14.6893617 68.5843972,15.6312057" id="Path"></path>
            <path d="M59.2907801,29.6794326 C59.5177305,29.8496454 59.1035461,30.3035461 58.9219858,30.3375887 C58.7914894,30.1560284 59.2,29.8950355 59.2907801,29.6794326" id="Path"></path>
            <path d="M56.1191489,21.6 C56.2723404,21.9347518 55.7276596,22.377305 55.4950355,22.7687943 C55.3588652,22.422695 55.8524823,21.8099291 56.1191489,21.6" id="Path"></path>
            <path d="M4.68085106,20.7319149 C4.77730496,20.2950355 5.49787234,19.7560284 5.33900709,19.3588652 C4.9929078,19.835461 4.52765957,20.3347518 4.68085106,20.7319149 M10.2411348,35.4269504 C11.9943262,33.1574468 14.1106383,31.341844 15.1546099,28.5617021 C13.5489362,30.7177305 11.1829787,33.1007092 10.2411348,35.4269504 M14.7801418,29.8950355 C15.177305,30.2695035 15.5631206,29.2368794 15.3929078,29.0666667 C15.0524823,29.458156 15.0865248,29.6340426 14.7801418,29.8950355 M15.835461,29.7304965 C16.187234,28.8851064 16.635461,28.7432624 16.9702128,28.0283688 C16.4028369,28.2042553 15.835461,29.248227 15.835461,29.7304965 M35.7730496,16.1361702 C34.7177305,15.8808511 33.3673759,17.3730496 32.1815603,17.7021277 C29.6596716,19.8567133 27.4889474,22.3911392 25.7475177,25.2141844 C29.6789293,22.9109704 33.0921084,19.8203724 35.7730496,16.1361702 M17.6567376,28.1815603 C17.7191489,28.0907801 17.7702128,28.0056738 17.8212766,27.9205674 C17.7569538,28.0012172 17.7017704,28.0887495 17.6567376,28.1815603 M17.6567376,28.1815603 C16.9304965,29.3163121 15.6765957,30.7234043 15.2737589,31.8638298 C14.3432624,32.3574468 13.5716312,33.8609929 12.6184397,34.2241135 C11.0921986,36.2553191 9.37304965,37.0212766 7.67659574,37.9404255 C6.30921986,37.7021277 5.13475177,38.6609929 3.76170213,38.3489362 C3.37021277,38.1673759 3.63687943,37.8780142 3.71631206,37.622695 C2.71085546,37.4456363 1.84148799,36.8186886 1.35602837,35.9205674 C0.953191489,35.177305 0.85106383,33.6510638 0.49929078,32.635461 C0.293662053,32.0971648 0.158267818,31.5346113 0.0964539007,30.9617021 C3.55271368e-15,29.9177305 0.192907801,29.1858156 3.55271368e-15,28.2269504 C1.1858156,22.848227 3.80141844,15.812766 9.07801418,10.4737589 C11.2680851,8.24397163 13.7475177,5.6 16.3347518,4.38014184 C17.0212766,4.38014184 17.8723404,4.07375887 18.7914894,4.53333333 C19.7457691,5.04761701 20.5524742,5.79767696 21.1347518,6.71205674 C20.5276596,7.14893617 19.8468085,7.08085106 19.1829787,7.14893617 C18.6164144,7.57164259 17.9837356,7.89756804 17.3106383,8.11347518 C13.6397163,10.8992908 10.0085106,13.9460993 6.66666667,18.8141844 C6.71205674,19.9489362 6.00851064,20.635461 5.44680851,21.7531915 C5.07555834,22.6998486 4.75547461,23.6657818 4.48794326,24.6468085 C3.81173288,26.3747678 3.3505887,28.1793279 3.11489362,30.0198582 C3.31347518,30.1219858 3.42695035,29.6964539 3.64255319,29.9347518 C2.9787234,30.5361702 3.64255319,30.9163121 2.9787234,31.5177305 C3.22397504,32.597818 3.35331194,33.7009858 3.36453901,34.8085106 C5.03262411,35.177305 6.46241135,33.2312057 8.40851064,31.7390071 C8.77730496,31.4553191 9.31631206,31.1319149 9.97446809,30.5588652 C12.5163121,28.3631206 16.0737589,24.2269504 17.4070922,20.9134752 C15.2907801,21.0099291 13.435461,22.9163121 11.4156028,23.5234043 C11.1315182,23.2051835 10.6960303,23.0680048 10.2808511,23.1659574 C9.19148936,22.4453901 9.88368794,21.4638298 9.07801418,20.6751773 C13.3446809,16.9475177 17.9460993,15.3758865 22.4624113,13.2255319 C24.5106383,12.9758865 26.5361702,12.5787234 28.7035461,13.1234043 C29.0251437,13.4092893 29.4166313,13.6050331 29.8382979,13.6907801 C30.3489362,14.3716312 31.0468085,15.0184397 30.5815603,15.8524823 C32.822695,14.6609929 34.9049645,12.448227 37.3163121,12.3858156 C38.4056738,13.129078 39.4836879,13.8780142 39.648227,14.7687943 C39.0944092,16.0408861 38.4038203,17.2489411 37.5886525,18.3716312 C37.6283688,18.5475177 37.2992908,18.7744681 37.6737589,18.8992908 C37.1992598,19.9674899 36.4984836,20.919926 35.6198582,21.6907801 C35.5687943,22.0141844 35.9262411,21.4014184 36.0907801,21.6907801 C35.670922,22.1617021 35.3191489,23.0468085 34.8085106,22.9617021 C34.7574468,22.7234043 34.9333333,22.4510638 35.1602837,22.1673759 C34.2808511,23.3021277 32.987234,23.8978723 32.4822695,24.8624113 C32.4278716,24.7241072 32.4540417,24.5670864 32.5503546,24.4539007 C30.4289744,26.5289446 27.923688,28.1708708 25.1744681,29.2879433 C25.2085106,30.3546099 25.1234043,31.4439716 25.1744681,32.5106383 C27.8297872,32.2382979 30.2411348,30.4340426 32.7375887,29.1858156 C33.6624113,28.2553191 34.7744681,27.8468085 35.7049645,27.0468085 C36.9078014,26.0085106 37.7304965,25.0836879 39.0297872,23.7787234 C39.5780956,23.3420505 40.0886474,22.8599681 40.5560284,22.3375887 C41.2879433,21.2028369 41.4411348,19.8184397 42.258156,18.7177305 C42.8255319,16.8283688 44.4652482,14.7460993 44.2496454,12.9815603 C44.9929078,12.7205674 45.8893617,13.4241135 46.7858156,14.1163121 C46.6609929,14.377305 46.848227,14.5985816 46.8368794,14.8425532 C47.4524868,14.5367757 48.0510068,14.1977406 48.6297872,13.8269504 C48.6814995,13.9673792 48.6556469,14.1246495 48.5617021,14.2411348 C50.7120567,13.106383 53.435461,11.835461 55.7617021,14.587234 C55.5858156,14.8141844 55.9035461,14.9673759 55.6595745,15.2056738 C58.070922,16.493617 57.4695035,18.9219858 55.6595745,20.4255319 C55.1489362,21.7021277 53.8326241,23.2340426 53.2312057,24.6921986 C52.2496454,26.4851064 50.3035461,27.6198582 50.1106383,29.2652482 C51.7787234,27.9886525 52.5163121,25.8609929 53.8836879,24.1191489 C53.6,25.5489362 52.3631206,27.1262411 51.5007092,28.658156 C51.2567376,28.7035461 51.0638298,29.0156028 50.8085106,28.964539 C50.751773,29.8609929 50.093617,30.0255319 50.0992908,30.8822695 C50.2695035,30.9787234 50.377305,30.6553191 50.5475177,30.7460993 C50.6950355,29.9858156 51.4609929,29.2085106 51.6822695,28.7659574 C52.0851064,29.2652482 51.6539007,29.5602837 51.3078014,30.235461 C51.8297872,30.2638298 52.2042553,29.3957447 52.7035461,29.2765957 C51.9319149,31.0184397 51.1205674,32.8907801 49.5262411,33.9234043 C49.020133,33.6570755 48.415328,33.6570755 47.9092199,33.9234043 C46.4340426,33.0382979 46.9219858,31.8411348 46.5985816,30.7801418 C47.0468085,29.3219858 48.0794326,28.1815603 48.5787234,26.6496454 C48.9370732,25.2830823 49.3785571,23.9396827 49.9007092,22.6269504 C50.1324772,22.2016443 50.2424205,21.7206423 50.2184397,21.2368794 C50.9531003,19.8512917 51.5809286,18.4116491 52.0964539,16.9304965 C50.6553191,16.4879433 49.6283688,18.6609929 48.3574468,19.3191489 C47.5687943,20.6751773 46.0255319,21.458156 45.1347518,22.7687943 C44.2439716,24.0794326 44,25.6056738 43.0241135,26.9163121 C42.8141844,27.1943262 43.1148936,27.3929078 43.0751773,27.6425532 C42.235461,27.9262411 42.0141844,28.6184397 41.5602837,29.3673759 C41.8780142,29.3673759 42.0595745,28.5049645 42.422695,28.8 C41.7531915,30.212766 40.612766,32.022695 40.1248227,33.8496454 C39.4609929,34.5078014 38.587234,33.8099291 37.7815603,33.5432624 C36.8907801,32.9758865 36.9134752,32.2099291 36.0794326,31.6028369 C36.237276,30.8967271 36.2603757,30.1671631 36.1475177,29.4524823 C37.2085106,27.9489362 37.9347518,26.4907801 38.8141844,25.0156028 C37.2879433,26.2297872 35.9092199,28.351773 34.3489362,29.3617021 C34.5021277,29.1744681 34.5758865,28.9929078 34.4964539,28.8397163 C34.4283688,29.0212766 34.0085106,29.2652482 34.2978723,29.4070922 C34.1832066,29.4827392 34.0638132,29.5509639 33.9404255,29.6113475 L33.3333333,30.4453901 C33.2028369,30.5191489 33.5262411,30.7687943 33.6170213,30.7007092 C31.8297872,33.2595745 29.3673759,35.9262411 26.7347518,36.4312057 C26.6893617,35.8921986 25.7248227,35.7163121 25.3673759,35.9092199 C24.4141844,35.1092199 24.2780142,35.6879433 23.1659574,34.7744681 L23.387234,34.4737589 L22.5475177,33.8666667 C21.2765957,31.7843972 21.412766,29.4865248 22.0198582,27.1148936 C22.1730496,26.8028369 22.3943262,26.9446809 22.587234,26.7007092 C23.5007092,23.012766 27.2056738,19.835461 29.764539,16.2666667 C29.7920612,15.5751424 29.6620743,14.8864056 29.3843972,14.2524823 C27.2624113,13.0666667 25.7702128,15.835461 23.9489362,16.5730496 C23.1262411,17.9007092 22.093617,17.9007092 21.2368794,19.0070922 C21.1120567,18.9276596 20.9702128,18.7574468 20.8737589,18.8652482 C20.448227,19.6879433 21.0326241,20.3574468 20.0397163,21.270922 C19.8695035,21.5546099 20.448227,21.151773 20.2723404,21.4297872 C20.0170213,22.1446809 19.2113475,22.9390071 18.7404255,23.6992908 C19.3078014,23.7390071 19.0695035,23.1943262 19.506383,22.9787234 C19.6198582,22.9163121 19.0695035,23.6312057 19.0241135,23.7900709 C18.9787234,23.9489362 19.2056738,23.9659574 19.1432624,24.1021277 C18.7007092,25.0609929 18.0085106,26.0595745 17.7248227,26.6666667 C19.3588652,25.7929078 20.2836879,22.4170213 21.4524823,20.8 C21.3390071,22.0652482 20.658156,23.4212766 20.0567376,24.7716312 C19.2794326,25.8099291 18.4737589,26.848227 18.5702128,27.7503546 C18.1560284,28.2326241 17.7815603,29.0156028 17.3276596,29.2822695 C17.577305,28.9021277 17.5205674,28.5673759 17.6964539,28.1929078 M5.24822695,18.7177305 C5.36737589,18.6099291 5.52056738,18.7177305 5.65106383,18.6439716 C6.81985816,16.8397163 8.17588652,15.3078014 9.08368794,13.951773 C7.65957447,15.2113475 6.43404255,17.3560284 5.24822695,18.7177305" id="Shape"></path>
            <path d="M42.4624113,28.1531915 C42.7914894,28.2893617 42.3092199,28.6524823 42.2070922,28.6638298 C42.1163121,28.5617021 42.2070922,28.0964539 42.4624113,28.1531915" id="Path"></path>
            <path d="M38.1560284,17.6453901 C38.3716312,17.4468085 38.6212766,17.4468085 38.9163121,17.7248227 C38.1446809,18.0765957 38.5304965,19.0921986 37.6567376,19.5971631 C37.4524823,19.0297872 38.4397163,18.2241135 38.1560284,17.6453901" id="Path"></path>
            <path d="M34.4851064,28.8680851 C34.564539,29.0212766 34.4851064,29.2028369 34.3375887,29.3900709 L34.2865248,29.3900709 C33.9971631,29.2652482 34.4170213,29.0212766 34.4851064,28.822695" id="Path"></path>
            <path d="M34.3375887,29.3900709 C34.3296739,29.4059038 34.3179822,29.4195441 34.3035461,29.4297872 L34.3035461,29.4297872 L34.3546099,29.4297872" id="Path"></path>
            <path d="M17.6567376,28.1815603 C17.7017704,28.0887495 17.7569538,28.0012172 17.8212766,27.9205674 C17.7702128,28.0056738 17.7191489,28.0907801 17.6567376,28.1815603" id="Path"></path>
            <path d="M102.836879,45.1347518 L101.792908,45.4297872 L100.04539,45.4865248 C100.04539,45.4865248 97.458156,45.2765957 99.7617021,45.0666667 L101.299291,45.0666667 L102.836879,45.1347518 Z M96.6411348,44.9248227 L96.0737589,45.2198582 L95.1375887,45.2765957 C95.1375887,45.2765957 93.7475177,45.0666667 94.9843972,44.8567376 L95.812766,44.8567376 L96.6411348,44.9248227 Z M157.174468,42.8028369 C153.784404,42.421915 150.369777,42.3061971 146.961702,42.4567376 C145.560284,42.5361702 144.124823,42.5361702 142.734752,42.5304965 C139.008983,42.5304965 135.281324,42.5040189 131.551773,42.4510638 C128.714894,42.4510638 125.912057,42.2468085 123.080851,42.3092199 C118.734752,42.4056738 114.382979,42.2751773 110.031206,42.258156 C108.164539,42.258156 106.303546,42.258156 104.436879,42.2978723 C101.843972,42.3659574 99.2510638,42.4794326 96.6638298,42.5758865 L88.3744681,42.870922 C85.9460993,42.9560284 83.5234043,43.0921986 81.0950355,43.1092199 C77.2595745,43.1092199 73.4241135,43.0695035 69.5886525,43.0695035 C65.3503546,43.0695035 61.1120567,43.1148936 56.8794326,43.1205674 C52.4122931,43.1205674 47.9489362,43.1205674 43.4893617,43.1205674 C42.4737589,43.1205674 41.4524823,43.0297872 40.4368794,43.0297872 C38.1673759,43.0297872 35.9319149,43.2794326 33.6680851,43.1262411 C33.1631206,43.0921986 32.6524823,43.1262411 32.141844,43.1262411 C29.5489362,43.1602837 26.9503546,43.2056738 24.351773,43.2340426 C23.6765957,43.2340426 22.9957447,43.1546099 22.3205674,43.1602837 C19.5574468,43.2 16.7943262,43.2567376 14.0312057,43.3021277 C13.0156028,43.3021277 12,43.3021277 10.9843972,43.3021277 C10.5335116,43.3000076 10.0828104,43.3208384 9.63404255,43.364539 C7.27828766,43.6402712 4.90798048,43.7729023 2.53617021,43.7617021 C2.5929078,44.2950355 2.63262411,44.8056738 2.71205674,45.3106383 C2.74868651,45.8995648 3.01324687,46.4510714 3.44964539,46.848227 C4.16069646,47.0534861 4.8906274,47.1865464 5.62836879,47.2453901 C6.85957447,47.2453901 8.09078014,47.058156 9.31631206,46.9333333 C10.4510638,46.8141844 11.5404255,46.6666667 12.658156,46.5475177 C13.0439716,46.5078014 13.458156,46.5475177 13.8382979,46.5021277 C16.7148936,45.9744681 19.670922,46.0595745 22.5815603,45.8269504 C22.919882,45.8099846 23.2588414,45.8099846 23.5971631,45.8269504 C24.493617,45.8269504 25.3957447,45.906383 26.2978723,45.8780142 C29.5659574,45.7758865 32.8283688,45.5092199 36.1078014,45.8382979 C37.3862413,46.0480911 38.6838829,46.1165883 39.977305,46.0425532 C40.2038978,46.0306236 40.4310581,46.0497127 40.6524823,46.0992908 C43.0028335,46.4319558 45.3796805,46.5383534 47.7503546,46.4170213 C48.5965883,46.3574334 49.4459649,46.3574334 50.2921986,46.4170213 C51.9207175,46.5238054 53.5555008,46.4858313 55.177305,46.3035461 C57.5262411,46.1560284 60.5163121,45.8609929 63.5858156,45.5943262 C64.0314462,45.5260982 64.4848659,45.5260982 64.9304965,45.5943262 C65.9302573,45.7697471 66.9465311,45.8325505 67.9602837,45.7815603 C69.1971631,45.7815603 70.4397163,45.8326241 71.6765957,45.929078 C73.0269504,46.0368794 74.3602837,46.2751773 75.7106383,46.3716312 C79.9908166,46.7497361 84.2903528,46.8615354 88.5843972,46.706383 C89.9858156,46.6382979 91.387234,46.5134752 92.7943262,46.4340426 C94.533157,46.2707836 96.2790954,46.1950379 98.0255319,46.2070922 C101.151773,46.3489362 104.221277,45.9744681 107.319149,45.8553191 C109.344681,45.7815603 111.364539,45.622695 113.390071,45.5205674 C115.302128,45.4184397 117.219858,45.3503546 119.131915,45.2595745 C120.147518,45.2085106 121.157447,45.1404255 122.167376,45.0723404 C123.68227,44.9702128 125.197163,44.8567376 126.706383,44.7602837 C127.659574,44.6921986 128.612766,44.635461 129.543262,44.5957447 C131.455319,44.5106383 133.37305,44.4822695 135.273759,44.3347518 C136.339381,44.2373593 137.410294,44.2108234 138.479433,44.2553191 C139.491475,44.3375809 140.508525,44.3375809 141.520567,44.2553191 C143.31499,44.0689001 145.117906,43.9761029 146.921986,43.977305 C147.489362,43.977305 148.056738,43.977305 148.624113,43.9319149 C150.246809,43.8241135 151.631206,43.4156028 153.253901,43.2680851 C154.229787,43.177305 154.956028,43.222695 155.977305,43.058156 C156.381149,43.0249993 156.776398,42.9233092 157.146099,42.7574468 L157.174468,42.8028369 Z" id="Shape"></path>
            <path d="M64.2553191,46.5531915 L65.7929078,46.5531915 L67.3304965,46.6156028 L66.2865248,46.9106383 L64.5390071,46.9673759 C64.5390071,46.9673759 61.951773,46.7631206 64.2553191,46.5531915" id="Path"></path>
            <path d="M27.6879433,45.8723404 L31.1829787,45.3843972 L34.6836879,44.9588652 L32.3460993,45.5829787 L28.3744681,46.1957447 C28.3744681,46.1957447 22.4737589,46.8085106 27.6822695,45.8723404" id="Path"></path>
            <path d="M73.0269504,46.2865248 L76.5560284,46.1957447 L80.0851064,46.1957447 L77.6851064,46.5531915 L73.6794326,46.7177305 C73.6794326,46.7177305 67.7446809,46.6609929 73.0269504,46.3148936" id="Path"></path>
            <path d="M42.7858156,46.4907801 L39.6652482,46.6553191 L36.5333333,46.6553191 L38.6212766,45.8099291 L42.1673759,45.4865248 C42.1673759,45.4865248 47.4439716,45.7304965 42.7858156,46.4907801" id="Path"></path>
            <path d="M20.9758865,46.5531915 L26.8368794,46.5531915 L32.7035461,46.6609929 L28.7319149,47.1432624 L22.070922,47.2340426 C22.070922,47.2340426 12.2099291,46.893617 21.0042553,46.5531915" id="Path"></path>
            <path d="M60.4765957,46.1333333 L61.3049645,46.1333333 L62.1333333,46.2014184 L61.5659574,46.4964539 L60.6297872,46.5531915 C60.6297872,46.5531915 59.2397163,46.3432624 60.4765957,46.1333333" id="Path"></path>
            <path d="M30.422695,46.0198582 L31.2453901,46.0198582 L32.0737589,46.0822695 L31.506383,46.377305 L30.564539,46.4340426 C30.564539,46.4340426 29.1744681,46.2297872 30.4170213,46.0198582" id="Path"></path>
            <path d="M13.6453901,46.893617 L14.4737589,46.893617 L15.2964539,46.9560284 L14.729078,47.2567376 L13.787234,47.3134752 C13.787234,47.3134752 12.4028369,47.1035461 13.6397163,46.893617" id="Path"></path>
            <path d="M58.0992908,54.5475177 L61.6510638,54.5475177 C63.3929078,54.5475177 64.6468085,55.1943262 64.6468085,57.2141844 C64.7355366,58.264744 64.0669648,59.2307231 63.0524823,59.5177305 L63.0524823,59.5460993 C64.2212766,59.7106383 64.9702128,60.5957447 64.9702128,61.9971631 C64.9702128,63.648227 64.1588652,65.0780142 61.6851064,65.0780142 L58.0992908,65.0780142 L58.0992908,54.5475177 Z M60.2212766,58.870922 L60.8510638,58.870922 C62.0141844,58.870922 62.5531915,58.4680851 62.5531915,57.4808511 C62.5531915,56.493617 62.0652482,56.1078014 61.0156028,56.1078014 L60.2496454,56.1078014 L60.2212766,58.870922 Z M60.2212766,63.5177305 L61.0496454,63.5177305 C62.0652482,63.5177305 62.751773,63.1489362 62.751773,61.9234043 C62.751773,60.6978723 62.0595745,60.3404255 61.129078,60.3404255 L60.2156028,60.3404255 L60.2212766,63.5177305 Z" id="Shape"></path>
            <path d="M66.7744681,54.5475177 L70.6950355,54.5475177 C72.4368794,54.5475177 73.4978723,55.4609929 73.4978723,57.2595745 C73.4978723,58.6609929 72.9304965,59.6028369 71.7446809,59.858156 L71.7446809,59.858156 C73.1914894,60.0510638 73.412766,60.8453901 73.4468085,63.0751773 C73.4468085,64.2099291 73.5205674,64.777305 73.9177305,64.964539 L73.9177305,65.0496454 L71.6312057,65.0496454 C71.435645,64.7048486 71.3449407,64.310482 71.3702128,63.9148936 L71.3078014,61.8950355 C71.3078014,61.0666667 70.9106383,60.5673759 70.0539007,60.5673759 L68.9191489,60.5673759 L68.9191489,65.0212766 L66.7971631,65.0212766 L66.7744681,54.5475177 Z M68.8964539,59.1489362 L69.7815603,59.1489362 C70.7971631,59.1489362 71.3758865,58.706383 71.3758865,57.5716312 C71.4271084,57.1678041 71.287788,56.7631005 70.998842,56.4763772 C70.7098961,56.189654 70.3041287,56.0534628 69.9007092,56.1078014 L68.8964539,56.1078014 L68.8964539,59.1489362 Z" id="Shape"></path>
            <path d="M77.4978723,54.5475177 L80.141844,54.5475177 L82.9276596,65.0780142 L80.7092199,65.0780142 L80.2212766,62.8539007 L77.4184397,62.8539007 L76.9304965,65.0780142 L74.7177305,65.0780142 L77.4978723,54.5475177 Z M77.7758865,61.1120567 L79.8411348,61.1120567 L78.8255319,56.3744681 L78.7971631,56.3744681 L77.7758865,61.1120567 Z" id="Shape"></path>
            <path d="M85.8156028,61.787234 L85.8156028,62.093617 C85.8156028,63.0808511 86.093617,63.7163121 87.2170213,63.7163121 C87.5631206,63.7317586 87.8993354,63.5986245 88.1410351,63.3504217 C88.3827348,63.1022189 88.5068975,62.7625887 88.4822695,62.4170213 C88.4822695,61.458156 88,61.106383 86.5985816,60.6184397 C84.7092199,59.9716312 83.835461,59.1886525 83.835461,57.4297872 C83.835461,55.3815603 85.0950355,54.3319149 87.0978723,54.3319149 C88.987234,54.3319149 90.3602837,55.1432624 90.3602837,57.1687943 L90.3602837,57.4695035 L88.3234043,57.4695035 C88.3234043,56.4765957 87.9829787,55.9035461 87.1886525,55.9035461 C86.8539009,55.8614225 86.5186279,55.9776146 86.2817303,56.2178489 C86.0448326,56.4580831 85.9333407,56.7949483 85.9801418,57.129078 C85.9801418,57.7758865 86.1730496,58.1730496 87.0695035,58.5588652 L88.7092199,59.2567376 C90.3035461,59.9489362 90.7120567,60.7602837 90.7120567,62.0425532 C90.7120567,64.2723404 89.3560284,65.2765957 87.058156,65.2765957 C84.6524823,65.2765957 83.7049645,64.141844 83.7049645,62.2070922 L83.7049645,61.7758865 L85.8156028,61.787234 Z" id="Path"></path>
            <polygon id="Path" points="92.351773 65.0780142 92.351773 54.5475177 94.4737589 54.5475177 94.4737589 65.0780142"></polygon>
            <polygon id="Path" points="96.5276596 65.0780142 96.5276596 54.5475177 98.6496454 54.5475177 98.6496454 63.3361702 102.411348 63.3361702 102.411348 65.0780142"></polygon>
        </g>
    </g>
</svg>